<?xml version="1.0" encoding="UTF-8" standalone="no"?>
<svg width="96px" height="96px" viewBox="0 0 96 96" version="1.1" xmlns="http://www.w3.org/2000/svg" xmlns:xlink="http://www.w3.org/1999/xlink" xmlns:sketch="http://www.bohemiancoding.com/sketch/ns">
    <!-- Generator: Sketch 3.4.4 (17248) - http://www.bohemiancoding.com/sketch -->
    <title>MisofoMe</title>
    <desc>Created with Sketch.</desc>
    <defs>
        <path id="path-1" d="M0,0.269610265 L53.8626977,0.269610265 L53.8626977,83.2012831 L0,83.2012831"></path>
    </defs>
    <g id="Page-1" stroke="none" stroke-width="1" fill="none" fill-rule="evenodd" sketch:type="MSPage">
        <rect id="Rectangle-2" fill="#00BAFF" sketch:type="MSShapeGroup" x="0" y="0" width="96" height="96"></rect>
        <g id="MisofoMe" sketch:type="MSArtboardGroup">
            <g id="Page-1" sketch:type="MSLayerGroup" transform="translate(20.000000, 6.906977)">
                <mask id="mask-2" sketch:name="Clip 2" fill="white">
                    <use xlink:href="#path-1"></use>
                </mask>
                <g id="Clip-2"></g>
                <path d="M36.6508047,70.5235987 L30.0682465,70.5235987 C27.7839209,55.9675025 25.4975023,41.3952106 23.2106651,26.8229187 C23.0474093,26.8251416 22.8845721,26.8276821 22.7213163,26.8299051 C20.2678744,45.5816324 17.8144326,64.3333597 15.3459209,83.2013148 L8.78471163,83.2013148 C5.86703721,70.6458601 2.9414093,58.0545209 -0.000125581395,45.3974464 L6.51126977,45.3974464 C8.02536279,51.4158842 9.50764186,57.3072972 10.9895023,63.1987102 C11.1456419,63.2076019 11.3013628,63.2161761 11.4575023,63.2250678 C14.0712698,42.2742226 16.6854558,21.3236949 19.3122,0.269642021 L25.932014,0.269642021 C28.3540605,15.6939532 30.776107,31.1160414 33.1977349,46.5381296 C33.3429907,46.5489267 33.4882465,46.5594063 33.6335023,46.5698858 C34.0014558,44.6292635 34.3865721,42.6905466 34.734014,40.7477014 C35.958014,33.9016966 37.1719674,27.0547391 38.3829907,20.207464 C38.5864326,19.0575715 38.8321535,17.9073613 38.9171302,16.7514351 C38.9769907,15.9365706 39.3868047,15.62663 40.4488047,15.6529877 C42.0478744,15.6930005 43.6498744,15.6634672 45.8383395,15.6634672 C48.5044326,30.0903156 51.1692698,44.509225 53.8625721,59.0831047 L48.0690837,59.0831047 C46.2887581,51.3364937 44.4975488,43.5416132 42.7063395,35.7467326 C42.5774093,35.7572122 42.4484791,35.7676917 42.3195488,35.7781713 C40.4341535,47.3336228 38.5487581,58.8890743 36.6508047,70.5235987" id="Fill-1" fill="#FFFFFF" sketch:type="MSShapeGroup" mask="url(#mask-2)"></path>
            </g>
        </g>
    </g>
</svg>